<svg id="_x33_0" enable-background="new 0 0 64 64" height="512" viewBox="0 0 64 64" width="512" xmlns="http://www.w3.org/2000/svg"><g><path d="m31 19h4v2h-4z"/><path d="m37 19h16v2h-16z"/><path d="m31 23h18v2h-18z"/><path d="m31 27h14v2h-14z"/><path d="m53 7h-32v2h30v4h-30v2h32z"/><path d="m63 26.242c0-2.89-2.352-5.242-5.243-5.242-.257 0-.507.038-.757.074v-18.074c0-1.103-.897-2-2-2h-37.414l-10.586 10.586v14l-3.021 3.021c-1.921 1.921-2.979 4.475-2.979 7.191 0 .885.116 1.767.343 2.621l3.63 13.613-2.193 10.968h16.44l-.8-4h25.299l-1 4h14.562l-2.262-9.047 1.919-12.473c.041-.268.062-.539.062-.81 0-1.705-.573-3.321-1.622-4.634l6.086-6.086c.991-.99 1.536-2.306 1.536-3.708zm-8-4.444c-.338.21-.661.449-.95.737l-8.464 8.465h-5.586c-1.654 0-3 1.346-3 3 0 .94.449 1.837 1.2 2.399l1.135.852-5.042 5.042-.136.136-1.493 3.484-2.442-8.301c-.279-.95-1.165-1.612-2.154-1.612-1.116 0-2.049.801-2.219 1.903l-1.68 10.923c-.029.194-.359.206-.402.014l-1.545-6.954c-.247-1.111-1.214-1.886-2.352-1.886-.894 0-1.694.49-2.115 1.274l-3.325-6.649c.256.201.518.397.799.572l4.771 2.983 4.771-2.982c2.648-1.656 4.229-4.509 4.229-7.632v-8.954l-3.516 1.173c-1.484.494-3.185.101-4.301-1.016l-1.183-1.182-1.185 1.183c-1.112 1.114-2.807 1.513-4.3 1.016l-3.515-1.174v8.954c0 1.22.248 2.396.7 3.478-.105-.017-.208-.044-.318-.044-.879 0-1.695.266-2.382.713v-18.992l.992-.33c2.209-.738 4.685-.404 6.621.886l2.387 1.592v-11.869h36zm-6.056 17.844c-.266-1.497-1.569-2.641-3.141-2.642-.001 0-.002 0-.003 0-1.518 0-2.835 1.08-3.133 2.568l-1.55 7.75c-.012.059-.016.118-.026.177l-.091.091-4.586-4.586 12.586-12.586 4.586 4.586zm-15.891 10.438.484-1.129 1.512 1.512-1.127.483c-.423.177-.922-.152-.922-.605 0-.09.018-.178.053-.261zm3.975-.466-2.643-2.643.952-2.22 3.911 3.911zm2.371-14.815c-.25-.187-.399-.486-.399-.799 0-.552.449-1 1-1h3.586l-2.822 2.822zm11.015-5.799 1.586-1.586 4.586 4.586-1.586 1.586zm-37.414-1.434v-6.179l.883.294c2.097.699 4.484.199 6.117-1.279 1.632 1.478 4.015 1.98 6.117 1.279l.883-.293v6.179c0 2.429-1.23 4.647-3.29 5.936l-3.71 2.317-3.71-2.318c-2.06-1.288-3.29-3.507-3.29-5.936zm-1.65-17.502 5.65-5.65v6.762c-1.715-.939-3.706-1.32-5.65-1.112zm-6.13 50.936 1.6-8h8.36l1.6 8zm10.991-11.658-.829 1.658h-8.614l-3.492-13.097c-.183-.685-.276-1.394-.276-2.105 0-2.182.85-4.233 2.393-5.776l1.607-1.608v7.586h.05c.04.306.099.609.197.902l1.497 4.49c.17.511.256 1.044.256 1.582v2.026h2v-2.026c0-.753-.121-1.498-.359-2.214l-1.497-4.49c-.096-.287-.144-.585-.144-.888 0-1.314 1.068-2.382 2.382-2.382l4.829 9.658c.516 1.032.789 2.188.789 3.342s-.273 2.31-.789 3.342zm1.809 7.658-.972-4.859.952-1.905c.654-1.309 1-2.773 1-4.236 0-.749-.093-1.497-.269-2.225l.775-1.549c.154-.309.688-.244.764.094l1.545 6.954c.226 1.016 1.11 1.726 2.151 1.726 1.096 0 2.013-.786 2.179-1.869l1.68-10.923c.035-.227.413-.253.478-.032l3.124 10.622-.212.495c-.143.332-.215.685-.215 1.048 0 1.466 1.193 2.659 2.659 2.659.36 0 .712-.072 1.048-.215l6.493-2.783c.341 1.303 1.109 2.479 2.203 3.3l1.465 1.099-.649 2.599zm27.261 4 1.5-6h6.438l1.5 6zm9.719-20.33c0 .168-.013.337-.039.504l-1.819 11.826h-6.809l-1.73-1.297c-1.003-.754-1.603-1.952-1.603-3.207 0-.263.026-.527.078-.786l1.55-7.749c.111-.557.604-.961 1.172-.961h.001c.661.001 1.199.539 1.199 1.2v6.8h2v-4.586l4.942-4.942c.677.926 1.058 2.029 1.058 3.198zm5.05-12.135-2.05 2.051-4.586-4.586 2.05-2.05c.613-.613 1.428-.95 2.293-.95 1.788 0 3.243 1.454 3.243 3.242 0 .867-.337 1.681-.95 2.293z"/><path d="m31 31h4v2h-4z"/></g></svg>