<svg width="58" height="58" viewBox="0 0 58 58" fill="none" xmlns="http://www.w3.org/2000/svg">
<path d="M36.1969 11.3293H31.4141L29.8109 6.51865C29.7541 6.34873 29.6454 6.20095 29.5 6.09624C29.3546 5.99152 29.1799 5.93518 29.0007 5.93518C28.8215 5.93518 28.6468 5.99152 28.5014 6.09624C28.356 6.20095 28.2473 6.34873 28.1906 6.51865L26.5864 11.3293H21.8035C21.6346 11.3293 21.4694 11.3794 21.3289 11.4732C21.1885 11.5671 21.079 11.7005 21.0144 11.8565C20.9497 12.0126 20.9329 12.1843 20.9659 12.3499C20.9989 12.5155 21.0803 12.6677 21.1998 12.787L24.4243 16.0108L22.7933 20.9053C22.7371 21.0741 22.735 21.2562 22.7874 21.4262C22.8397 21.5962 22.9439 21.7456 23.0853 21.8536C23.2267 21.9615 23.3984 22.0226 23.5762 22.0284C23.7541 22.0341 23.9293 21.9841 24.0773 21.8854L29.0007 18.6046L33.9241 21.8854C34.0721 21.9841 34.2473 22.0341 34.4252 22.0284C34.603 22.0226 34.7747 21.9615 34.9161 21.8536C35.0575 21.7456 35.1617 21.5962 35.214 21.4262C35.2664 21.2562 35.2643 21.0741 35.2081 20.9053L33.5756 16.0108L36.8006 12.787C36.9201 12.6677 37.0015 12.5155 37.0345 12.3499C37.0676 12.1843 37.0507 12.0126 36.9861 11.8565C36.9214 11.7005 36.812 11.5671 36.6715 11.4732C36.531 11.3794 36.3658 11.3293 36.1969 11.3293ZM31.9948 15.1765C31.8826 15.2885 31.8038 15.4295 31.7673 15.5838C31.7309 15.7381 31.7382 15.8994 31.7884 16.0498L32.8001 19.0842L29.4746 16.8679C29.3343 16.7744 29.1694 16.7244 29.0007 16.7244C28.832 16.7244 28.6671 16.7744 28.5268 16.8679L25.2013 19.0842L26.213 16.0498C26.2632 15.8994 26.2705 15.7381 26.2341 15.5838C26.1976 15.4295 26.1188 15.2885 26.0066 15.1765L23.8665 13.0368H27.2018C27.3812 13.0367 27.5561 12.9801 27.7015 12.875C27.8469 12.7699 27.9555 12.6217 28.0119 12.4514L29.0007 9.48673L29.9895 12.4524C30.046 12.6226 30.1547 12.7707 30.3 12.8758C30.4454 12.9808 30.6202 13.0375 30.7996 13.0378H34.1349L31.9948 15.1765Z" fill="white"/>
<path d="M55.4526 3.71888C53.0524 2.05629 49.375 2.10898 46.3501 3.66375L46.9606 1.04693C46.9898 0.921901 46.9903 0.791911 46.9623 0.666643C46.9342 0.541374 46.8782 0.424055 46.7984 0.323426C46.7187 0.222798 46.6172 0.141454 46.5017 0.0854554C46.3861 0.0294565 46.2594 0.000246018 46.131 3.81084e-07H11.8729C11.7442 -0.000121135 11.6172 0.0288199 11.5014 0.0846603C11.3855 0.140501 11.2838 0.221796 11.2037 0.322472C11.1237 0.423147 11.0675 0.540598 11.0393 0.666048C11.0111 0.791497 11.0116 0.9217 11.0408 1.04693L11.6484 3.66229C8.62252 2.10654 4.9461 2.05239 2.5464 3.71742C-0.00703874 5.48636 -0.678096 8.78764 0.705502 12.7724C3.79383 21.6644 14.0695 25.8658 18.6166 27.3235C20.0674 29.0758 21.9411 30.4294 24.0607 31.2566V34.5861C24.0607 34.8126 24.1507 35.0297 24.3109 35.1898C24.4711 35.3499 24.6883 35.4399 24.9148 35.4399H25.8357C25.7207 37.6248 25.1028 39.7538 24.03 41.6609H20.704C20.4775 41.6609 20.2602 41.7509 20.1001 41.911C19.9399 42.0711 19.8499 42.2882 19.8499 42.5147V46.6614H16.7147C16.5308 46.6615 16.3519 46.7209 16.2044 46.8307C16.057 46.9406 15.9489 47.0951 15.8963 47.2712L13.0198 56.9023C12.9818 57.0298 12.9741 57.1643 12.9973 57.2952C13.0205 57.4262 13.074 57.5498 13.1535 57.6565C13.2329 57.7631 13.3363 57.8496 13.4551 57.9093C13.574 57.9689 13.7052 58 13.8382 58H44.1632C44.2962 58.0001 44.4275 57.9691 44.5464 57.9095C44.6653 57.8499 44.7687 57.7633 44.8482 57.6567C44.9277 57.55 44.9812 57.4263 45.0044 57.2953C45.0275 57.1643 45.0197 57.0298 44.9816 56.9023L42.1051 47.2712C42.0525 47.0951 41.9444 46.9406 41.797 46.8307C41.6495 46.7209 41.4706 46.6615 41.2867 46.6614H38.1529V42.5142C38.1529 42.402 38.1308 42.2908 38.0878 42.1872C38.0448 42.0836 37.9817 41.9894 37.9023 41.9101C37.8228 41.8309 37.7284 41.7681 37.6247 41.7253C37.5209 41.6826 37.4097 41.6607 37.2974 41.6609H33.968C32.895 39.7538 32.2771 37.6249 32.1622 35.4399H33.0832C33.1953 35.4399 33.3064 35.4179 33.4101 35.375C33.5137 35.3321 33.6079 35.2692 33.6872 35.19C33.7666 35.1107 33.8295 35.0165 33.8724 34.9129C33.9153 34.8093 33.9373 34.6983 33.9372 34.5861V31.2566C36.0567 30.4293 37.9303 29.0759 39.3813 27.324C43.9294 25.8658 54.2056 21.6649 57.2925 12.7724C58.679 8.78764 58.008 5.48636 55.4526 3.71888ZM44.9343 9.76237C47.2525 8.20466 50.1563 7.65778 51.3945 8.58226C52.4194 9.34477 52.1012 11.0352 51.6556 12.3187C50.0909 16.824 45.6185 19.615 42.292 21.1283L44.9343 9.76237ZM15.7094 21.1293C12.3829 19.6145 7.90998 16.824 6.3458 12.3187C5.89973 11.0352 5.58348 9.34282 6.6069 8.58226C7.84604 7.65534 10.7484 8.20466 13.0671 9.76237L15.7094 21.1293ZM2.31946 12.2128C1.18964 8.95888 1.61619 6.44108 3.52004 5.12194C5.78162 3.55545 9.54199 3.96622 12.1994 6.03031L12.541 7.50021C10.1496 6.344 7.31896 5.92104 5.58543 7.21335C4.56347 7.97537 3.58446 9.57698 4.73185 12.8788C6.71964 18.6027 12.6777 21.784 16.2984 23.2387C16.5048 23.8287 16.7515 24.4038 17.0368 24.9599C12.2506 23.1275 4.75625 19.2301 2.31946 12.2128ZM43.0173 56.2925H14.9846L17.3511 48.3684H40.6503L43.0173 56.2925ZM36.4448 46.6609H21.5566V43.3679H36.4448V46.6609ZM32.029 41.6604H25.9719C26.9081 39.7133 27.4438 37.5982 27.5473 35.4403H30.4541C30.5572 37.5984 31.0927 39.7132 32.029 41.6604ZM32.2311 33.7329H25.7704V31.7995C27.8921 32.3232 30.1093 32.3232 32.2311 31.7995V33.7329ZM29.0007 30.4848C27.2354 30.4894 25.4917 30.0958 23.8997 29.3332C22.3077 28.5706 20.9084 27.4588 19.806 26.0805C19.7914 26.0609 19.7757 26.0429 19.7596 26.0248C18.6778 24.6571 17.9124 23.0669 17.5185 21.3683L12.948 1.70796H45.0534L40.4829 21.3683C40.089 23.0669 39.3236 24.6571 38.2418 26.0248C38.2257 26.0434 38.2096 26.0614 38.193 26.0814C37.0907 27.4592 35.6918 28.5707 34.1002 29.3331C32.5087 30.0955 30.7656 30.4892 29.0007 30.4848ZM55.6819 12.2128C53.2452 19.2301 45.7503 23.1275 40.9626 24.9599C41.2481 24.4039 41.4948 23.8288 41.701 23.2387C45.3237 21.784 51.2818 18.6042 53.2676 12.8788C54.414 9.57698 53.436 7.97537 52.4135 7.21335C50.681 5.92104 47.8523 6.344 45.458 7.50021L45.7996 6.0308C48.4575 3.96622 52.2173 3.55545 54.4799 5.12243C56.3852 6.44108 56.8118 8.95888 55.6819 12.2128Z" fill="white"/>
</svg>
