<svg width="46" height="38" viewBox="0 0 46 38" fill="none" xmlns="http://www.w3.org/2000/svg">
<path d="M41.2083 38H4.79167C2.1505 38 0 35.8677 0 33.2489V29.448C0 28.9235 0.429333 28.4978 0.958333 28.4978H1.91667C4.03075 28.4978 5.75 26.7931 5.75 24.697C5.75 22.6008 4.03075 20.8961 1.91667 20.8961H0.958333C0.429333 20.8961 0 20.4704 0 19.9459V16.145C0 13.5262 2.1505 11.3939 4.79167 11.3939H41.2083C43.8495 11.3939 46 13.5262 46 16.145V19.9459C46 20.4704 45.5707 20.8961 45.0417 20.8961H44.0833C41.9693 20.8961 40.25 22.6008 40.25 24.697C40.25 25.7118 40.6487 26.6658 41.3732 27.3842C42.0958 28.1025 43.0579 28.4978 44.0814 28.4978H45.0398C45.5688 28.4978 45.9981 28.9235 45.9981 29.448V33.2489C46 35.8677 43.8495 38 41.2083 38ZM1.91667 30.3983V33.2489C1.91667 34.8206 3.20658 36.0996 4.79167 36.0996H41.2083C42.7934 36.0996 44.0833 34.8206 44.0833 33.2489V30.3983C42.5481 30.3983 41.1029 29.8053 40.0181 28.7297C38.9313 27.6521 38.3333 26.2192 38.3333 24.697C38.3333 21.5536 40.9132 18.9957 44.0833 18.9957V16.145C44.0833 14.5733 42.7934 13.2944 41.2083 13.2944H4.79167C3.20658 13.2944 1.91667 14.5733 1.91667 16.145V18.9957C5.08683 18.9957 7.66667 21.5536 7.66667 24.697C7.66667 27.8403 5.08683 30.3983 1.91667 30.3983Z" fill="white"/>
<path d="M16.2917 15.1948C15.7627 15.1948 15.3333 14.7691 15.3333 14.2446V12.3441C15.3333 11.8196 15.7627 11.3939 16.2917 11.3939C16.8207 11.3939 17.25 11.8196 17.25 12.3441V14.2446C17.25 14.7691 16.8207 15.1948 16.2917 15.1948Z" fill="white"/>
<path d="M16.2917 31.2744C15.7627 31.2744 15.3333 30.8487 15.3333 30.3241V27.1105C15.3333 26.586 15.7627 26.1603 16.2917 26.1603C16.8207 26.1603 17.25 26.5841 17.25 27.1105V30.326C17.25 30.8506 16.8207 31.2744 16.2917 31.2744ZM16.2917 23.2355C15.7627 23.2355 15.3333 22.8098 15.3333 22.2853V19.0698C15.3333 18.5453 15.7627 18.1196 16.2917 18.1196C16.8207 18.1196 17.25 18.5453 17.25 19.0698V22.2853C17.25 22.8098 16.8207 23.2355 16.2917 23.2355Z" fill="white"/>
<path d="M16.2917 38C15.7627 38 15.3333 37.5743 15.3333 37.0498V35.1494C15.3333 34.6248 15.7627 34.1991 16.2917 34.1991C16.8207 34.1991 17.25 34.6248 17.25 35.1494V37.0498C17.25 37.5743 16.8207 38 16.2917 38Z" fill="white"/>
<path d="M4.79167 13.2944C4.40258 13.2944 4.0365 13.0587 3.89467 12.6767C3.70875 12.1845 3.95983 11.6372 4.45625 11.4547L34.9312 0.171862C36.4128 -0.379264 38.1532 0.445524 38.6592 1.92596L42.1149 12.0382C42.2836 12.5361 42.0152 13.0739 41.515 13.243C41.0186 13.4122 40.4704 13.1442 40.2998 12.6482L36.8441 2.536C36.6754 2.04189 36.0966 1.77203 35.6002 1.95067L5.12517 13.2335C5.01592 13.2754 4.90283 13.2944 4.79167 13.2944Z" fill="white"/>
</svg>
